<?xml version="1.0" encoding="UTF-8"?>
<svg id="Layer_2" data-name="Layer 2" xmlns="http://www.w3.org/2000/svg" viewBox="0 0 43.71 47.3">
  <defs>
    <style>
      .cls-1 {
        fill: #000;
        stroke: #fbbf12;
        stroke-miterlimit: 10;
        stroke-width: .5px;
      }

      .cls-2 {
        fill: #231f20;
      }

      .cls-2, .cls-3 {
        stroke-width: 0px;
      }

      .cls-3 {
        fill: #fbbf12;
      }
    </style>
  </defs>
  <g id="Layer_1-2" data-name="Layer 1">
    <g>
      <path class="cls-1" d="M34.8,26.95s-2.16-.14-3.54,1.44-1.76,3.94-1.76,3.94c0,0-.84,2.71-3.16,3.07,0,0-.99.25-1.22,1.99-.23,1.74-.84,2.27-.84,2.27,0,0-.2.18-1.53.32s-2.01.5-2.01.5c0,0-.41.41-.33,1.65,0,0-2.65,1.19-3.87,1.79-1.22.6-2.93,2.02-2.93,2.02,0,0-.89.6-2.09.94s-1.83.07-2.65-.41c-.81-.48-.94-1.24-.94-1.24,0,0,.43-1.03-.74-1.72s-.84-1.05-.84-1.05c0,0-.89-1.15-1.71-1.33-.81-.18-.18-4.52-.18-4.52,0,0,.28-.32-.13-.85s.33-1.51.33-1.51l2.14-2.02s.59.39.64-4.15c0,0,.87-1.26-.05-2.68s-1.09-2.61-1.09-2.61c0,0-.48-2.91-.48-4.4,0,0,.25-.94-1.32-.92,0,0-2.8-3.32-3.49-6.28C.34,8.24.21,6.98.26,5.81s.28-2.27.28-2.27c0,0,.13-.18.28-.92s.03-2.04.87-2.34,1.09,1.51,1.09,1.51c0,0,.69,3.81,1.17,5.25.48,1.44,1.02,3.46,2.57,4.26l.46.18.1.69s2.8,2.2,5.55,2.77c0,0,1.68,1.86,2.88,2.02s.81.92,4.73,0c0,0,2.14-.57,2.62-.83s2.57.09,2.57.09c0,0,1.02.41,3.1.14s3.33-.11,3.33-.11c0,0,0,.57,1.6.11s3.49-2.13,4.25-3.49,1.12-2.09,1.04-3.92c-.08-1.83.33-3.87-.87-5.53l-.33-.78.05-1.81s2.44,1.24,3.41,3.81c.97,2.57,1.07,4.61,1.07,4.61l-.15,4.06s-.56,3.16-1.12,3.74c0,0,1.35-.48,1.81-1.19l.81-.09s-.05,1.9-.59,2.84-2.37,3.55-3.33,4.4c0,0-.38,1.58-.69,1.97s-1.55,1.47-1.71,1.42,5.73,3.9,5.73,3.9c0,0,.38.3-.03.53s-3.13.94-3.13.94c0,0,.2,1.81-.84,2.5l1.22,1.35-.03.3-4.73,3.19-.43-.05-3.38-4.26.03-.37.99-.46s-.87-2.84.41-4.24c1.27-1.4,1.91-1.42,1.91-1.42l-.05-1.38Z"/>
      <path class="cls-3" d="M35.05,31.01c-.31.09-.33,1.19-.33,1.19l.66-.34v-1.03l-.33.18Z"/>
      <path class="cls-3" d="M36.3,28.46v-.89l3.84,2.55-1.92.76s-.32-1.12-1.23-1.19c0,0,.66.71.53.91v.45l-1.09.41-.13-1.72-.74.18.13,2.43-1.25.71.51.83.94-.64.56.64-.03.57h.61l.89,1.28-2.32,1.65-2.27-2.5.18-.14s.79.37.97.32-2.37-2.29-.38-5.18c0,0,.98-1.33,2.19-1.42Z"/>
      <path class="cls-3" d="M37.47,33.05c.48-.25.25-1.17.25-1.17l-.98.46.73.71Z"/>
      <path class="cls-3" d="M36.58,24.5c-.18.28-.87.41-.87.41,0,0-.15.16-1.93-.66-1.78-.83-2.34-.39-2.34-.39l2.41,2.17s.02,0,.03.01c.16.04,1.63-.52,2.03-.76.43-.25.66-.78.66-.78Z"/>
      <path class="cls-3" d="M24.19,32.96c.83-1.62,2.75-1.65,3.37-1.61.11,0,.2-.08.21-.19l.16-2.57c0-.07-.03-.14-.09-.18-.32-.22-1.44-.92-2.63-.92-.09,0-.17.06-.19.15l-.15.58c-.03.13-.17.19-.28.13-.35-.19-1.06-.49-1.67-.21-.78.36-.88,1.15-.89,1.25,0,0,0,.01,0,.02v.29l1.6-.23s-1.45.33-2.44.97c-.09.06-.12.19-.06.28.12.19.36.46.74.46l.03.28s-.62.09-.2.62c.35.44,1.78.86,2.25.99.09.03.18-.02.23-.11Z"/>
      <path class="cls-3" d="M39.66,17.85v1.28s3.03-.39,3.28-2.8c0,0,.13-.55-.41,0s-2.01,1.17-2.01,1.17l-.05.11s.9.08,1.93-.82c0,0-.97,1.72-2.75,1.05Z"/>
      <path class="cls-3" d="M40.17,8.43c-.47-3.09-2.27-6.72-2.27-6.72,0,0,1.68,3.78,1.5,5.2l.41,1.67c.12.17.39.06.36-.16Z"/>
      <path class="cls-3" d="M39.15,7.25l.23.55s.23,4.79-2.95,7.52c0,0,3.29-3.62,2.72-8.07Z"/>
      <path class="cls-3" d="M40.26,11.23c0,.49-.02,2.29-.68,3.66-.03.07-.1.11-.18.11h-.67c-.11,0-.2.09-.2.2h0c0,.11.08.19.18.2l.78.07s.04,0,.06.02c.12.06.52.33,0,1.32-.07.13.03.3.18.3h.18c.19,0,.27.25.12.37l-2,1.45c-.12.09-.29.01-.31-.14l-.04-.3c-.02-.14-.17-.22-.3-.15-.99.59-4.67,2.64-8.09,2.62h-2.16c-.07,0-.13-.03-.17-.09l-.62-.94c-.04-.06-.1-.09-.17-.09-.38,0-1.69.03-2.06.21-.4.19.97,2.79,1.17,3.17.02.03.02.06.02.1v1.08c0,.1-.07.18-.16.2-.76.14-3.98.95-5.77,4.69-.87,1.83-1.95-.55-2.05-.78,0-.01,0-.02-.01-.04-.06-.28-.72-3.63.84-4.66,0,0,.38-.5-.59-.02-.89.44-1.26,2.82-1.32,3.2,0,.04-.02.07-.04.1l-.29.37s-.04.06-.04.1c-.05.37-.36,2.53-.86,3.28-.06.08-.05.2.03.27.11.1.21.29.05.64-.04.08-.03.83-.03,1.23,0,.13.12.22.25.19.44-.11,1.36-.29,1.51-.05.19.3-.13,3.38-.17,3.78,0,.03-.01.06-.03.09-.15.24-1.01,1.47-2.1.23-.03-.03-.06-.05-.1-.06-.24-.06-1.13-.2-1.08.91s.46,1.34.54,1.37c0,0,.02,0,.03,0,.11.01.88.1,1.26-.3s.6.33.65.5c0,.02,0,.04,0,.06l-.02.71c0,.1-.08.19-.18.2-.41.03-1.45,0-2.62-.85-1.37-1-2.74.07-2.97.27-.02.02-.05.03-.08.04-.3.07-2.01.41-3.47-.36-1.12-.59-1.62-.87-1.82-.99-.07-.04-.11-.12-.1-.21.04-.27.15-.83.44-.94.38-.14.13-1.08-.15-1.58-.24-.44.6-.85.81-.94.03-.01.06-.02.1-.01.15.02.61,0,.87-.75.02-.05.02-.1,0-.14-.05-.12-.12-.37.03-.56.18-.23,1.01-.19,1.19-.19.02,0,.05,0,.07,0,.2-.07,1.16-.47,1.41-2.03.28-1.74,1.45-1.97,1.45-1.97l.2-.05s-.71-2.09-.13-3.05.79-3.74.79-3.74l-.23-.09s-.33,2.22-1.53,2.61c0,0-.64.34-.05-1.56.59-1.9-1.43.46-1.43.46,0,0-.69,1.03-1.12-.76-.43-1.79-.23-1.67-.23-1.67,0,0,3.84-3.21,5.73-2.71l.28.02-.07-1.39s-.01-.07-.03-.1c-.16-.24-.94-1.37-1.17-1.35,0,0,1.15.32,1.68,1.51s3.72,1.13,3.86,1.12c0,0,0,0,0,0,.15,0,3.84.17,5.01-.32,1.2-.5,1.22-.92,1.91-.92s1.93.55,2.7.37c.76-.18,5.85.25,6.72.07.75-.16,1.69-1.02,1.93-1.25.04-.04.09-.05.14-.05l1,.02c.07,0,.13-.03.17-.09.43-.68,3.04-4.83,3.04-5.5l.14.06c.07.03.12.1.12.18Z"/>
      <path class="cls-3" d="M12.4,22.8s.33,1.24-.41,1.65.41-1.65.41-1.65Z"/>
      <path class="cls-3" d="M18.86,37.2s-.03.99,1.09.85l-.24.24c-.01-.1-.1-.17-.2-.17l-.66-.91Z"/>
      <path class="cls-3" d="M16.96,40.55c1.04-.21.28-1.22.28-1.22,0,0-.97,1.35-.28,1.22Z"/>
      <path class="cls-3" d="M11.64,42.63s-.81-2.02-5.06-1.88c0,0-.84-.07-.84.28s1.04,1.47,1.04,1.47l1.78.28-.38.5h-.69l.71.6s1.3.11,1.32,0-.05-1.05-.05-1.05l2.16-.18Z"/>
      <path class="cls-3" d="M8.68,44.74s1.83.21,1.83,1.47c0,0-2.66-.07-1.83-1.47Z"/>
      <path class="cls-3" d="M5.58,11.11c-1.35-.18-2.6-5.07-2.6-5.07L1.85.88s1.29,2.18,1.52,5.23,2.21,5,2.21,5Z"/>
      <path class="cls-3" d="M1.98,10.05s.65-.32,3.11,2.2c.03.03.07.05.12.06l.83.09c.07,0,.14.06.16.13.15.37.7,1.55,1.92,1.97.36.12.66.24.92.34.22.09.14.42-.09.39-.84-.09-1.82-.23-2.08-.41,0,0-.38,0,.87.53.89.38.57.43.32.42-.12,0-.22.11-.2.23s.07.28.19.47c.25.38-.37.61-.53.66-.02,0-.04,0-.06,0-.3,0-2.61-.11-3.58-1.35-1.04-1.33-2.06-3.21-2.01-4.63s.13-1.1.13-1.1Z"/>
      <path class="cls-3" d="M5.38,12.96l.56.55s.13-.69-.56-.55Z"/>
      <path class="cls-3" d="M36.49,36.58s-.04.01-.05.03l-.78.56.06.06.76-.56s0,0,0,0c.07,0,.07-.09,0-.09Z"/>
      <g>
        <path class="cls-2" d="M35.67,36.09c.11.01.22.04.32.08.07.03.13.08.2.11l.55-.45-2.02-.09.38.47c.19-.07.36-.13.57-.11Z"/>
        <polygon class="cls-2" points="35.1 36.2 35.66 36.91 36.2 36.28 35.97 36 35.38 36 35.1 36.2"/>
        <polygon class="cls-2" points="36.74 35.82 37.26 35.82 35.66 36.91 35.67 36.09 36.74 35.82"/>
      </g>
      <path class="cls-2" d="M34.95,30.85c-.4.13-.4,1.59-.4,1.59l.86-.48-.03-1.36-.43.25Z"/>
    </g>
  </g>
</svg>